<svg width="20" height="20" viewBox="0 0 20 20" fill="none" xmlns="http://www.w3.org/2000/svg">
    <path d="M9.71106 20H1.71296C0.762618 20 0 19.2266 0 18.2822V1.71781C0 0.773408 0.762613 0 1.71296 0H18.287C19.2374 0 20 0.773406 20 1.71781V18.2822C20 19.2266 19.2374 20 18.287 20H13.0619V13.5639H15.6627L16.109 10.5094H13.0619V8.4717C13.0619 7.9092 13.5179 7.4532 14.0804 7.4532H16.109V3.88835H12.358L12.3324 3.88847C10.8651 3.90256 9.68698 5.1035 9.70106 6.57087L9.71106 7.61004L9.67531 10.5094H6.94448V13.5639H9.71106V20Z" fill="white" />
</svg>