<svg width="22" height="22" viewBox="0 0 22 22" fill="none" xmlns="http://www.w3.org/2000/svg">
    <path fill-rule="evenodd" clip-rule="evenodd" d="M0 11C0 4.92487 4.92487 0 11 0C17.0751 0 22 4.92487 22 11C22 17.0751 17.0751 22 11 22C4.92487 22 0 17.0751 0 11ZM11 2C6.02943 2 2 6.02943 2 11C2 15.9706 6.02943 20 11 20C15.9706 20 20 15.9706 20 11C20 6.02943 15.9706 2 11 2ZM10.0387 6.04289C10.4293 5.65237 11.0624 5.65237 11.453 6.04289L15.953 10.5429C16.3435 10.9334 16.3435 11.5666 15.953 11.9571L11.453 16.4571C11.0624 16.8476 10.4293 16.8476 10.0387 16.4571C9.64822 16.0666 9.64822 15.4334 10.0387 15.0429L12.8316 12.25H6.24585C5.69357 12.25 5.24585 11.8023 5.24585 11.25C5.24585 10.6977 5.69357 10.25 6.24585 10.25H12.8316L10.0387 7.45711C9.64822 7.06658 9.64822 6.43342 10.0387 6.04289Z" fill="black" fill-opacity="0.65"/>
    </svg>