<svg width="22" height="22" viewBox="0 0 22 22" fill="none" xmlns="http://www.w3.org/2000/svg">
    <path fill-rule="evenodd" clip-rule="evenodd" d="M22 11C22 17.0751 17.0751 22 11 22C4.92487 22 4.30545e-07 17.0751 9.61651e-07 11C1.49276e-06 4.92486 4.92487 -1.49276e-06 11 -9.61651e-07C17.0751 -4.30545e-07 22 4.92487 22 11ZM11 20C15.9706 20 20 15.9706 20 11C20 6.02943 15.9706 2 11 2C6.02944 2 2 6.02943 2 11C2 15.9706 6.02944 20 11 20ZM11.9613 15.9571C11.5707 16.3476 10.9376 16.3476 10.547 15.9571L6.04704 11.4571C5.65652 11.0666 5.65652 10.4334 6.04704 10.0429L10.547 5.54289C10.9376 5.15237 11.5707 5.15237 11.9613 5.54289C12.3518 5.93342 12.3518 6.56658 11.9613 6.95711L9.16836 9.75L15.7542 9.75C16.3064 9.75 16.7542 10.1977 16.7542 10.75C16.7542 11.3023 16.3064 11.75 15.7542 11.75L9.16836 11.75L11.9613 14.5429C12.3518 14.9334 12.3518 15.5666 11.9613 15.9571Z" fill="black" fill-opacity="0.65"/>
    </svg>
    