<svg width="18" height="16" viewBox="0 0 18 16" fill="none" xmlns="http://www.w3.org/2000/svg">
    <path d="M13.6236 0.470148C14.1968 0.751097 14.682 1.17299 15.0862 1.70673C15.4318 1.72904 15.8398 1.58678 16.3512 1.11434C16.5944 0.889706 16.9475 0.830318 17.2507 0.963039C17.554 1.09576 17.75 1.39542 17.75 1.72647C17.75 2.9044 17.5278 3.67253 17.2109 4.27268C17.0664 4.54644 16.9093 4.77027 16.7878 4.94354L16.7729 4.96467C16.6935 5.07793 16.633 5.16588 16.5843 5.24522L16.5851 5.35823C16.5996 7.49568 16.6308 12.1044 12.2832 14.8208C9.91987 16.2974 7.14653 16.0405 4.99118 15.4467C2.91737 14.8754 1.24733 13.9458 0.746168 13.6668L0.680125 13.6301C0.321743 13.432 0.160431 13.0028 0.299573 12.6177C0.438715 12.2325 0.837071 12.0055 1.23934 12.0822C2.03275 12.2334 3.07366 12.088 4.39648 11.5446C3.02206 10.6668 2.0416 9.60943 1.5532 8.34073C0.643927 5.97866 1.10642 3.85582 1.52444 2.24981C1.60859 1.92649 1.87771 1.68469 2.20816 1.63548C2.53861 1.58627 2.86651 1.73917 3.04121 2.02394C3.62928 2.98248 4.45533 4.02701 5.43415 4.65189C6.24095 5.16694 7.13019 5.39161 8.13816 5.0493C8.1064 3.93808 8.25904 2.88683 8.67684 2.02966C9.19354 0.969582 10.1073 0.238637 11.4081 0.107953C12.1984 0.0285596 12.9465 0.138275 13.6236 0.470148Z" fill="white" />
</svg>